# xmcd
#
# Track frame offsets:
#	150
#	14400
#	35675
#	51435
#	67585
#	92775
#	105340
#	109305
#	122550
#	140695
#	152020
#	165180
#	176825
#	192050
#	214120
#	235840
#	254410
#	268145
#	281815
#	304700
#	323025
#
# Disc length: 4589 seconds
#
# Revision: 1
# Processed by: cddbd v1.5.1PL2 Copyright (c) Steve Scherf et al.
# Submitted via: EasyCDDAExtractor 9.0.0.1
#
DISCID=2811eb15
DTITLE=Alice Cooper -  Fort Mellon Park Sandford 14-02-03
DYEAR=2003
DGENRE=Hard Rock
TTITLE0=No More Mr Nice Guy
TTITLE1=Eighteen
TTITLE2=Billion Dollar Babies
TTITLE3=Is It My Body
TTITLE4=Poison
TTITLE5=Back In The USSR
TTITLE6=Be My Lover
TTITLE7=Welcome To My Nightmare
TTITLE8=Go To Hell
TTITLE9=My Generation
TTITLE10=Elected
TTITLE11=Cold Ethyl
TTITLE12=Department Of Youth
TTITLE13=Brown Sugar
TTITLE14=Lost In America
TTITLE15=Trash
TTITLE16=Band Intros
TTITLE17=Under My Wheels
TTITLE18=School's Out
TTITLE19=Honky Tonk Woman
TTITLE20=Saturday Night Alright For Fighting
EXTD=
EXTT0=
EXTT1=
EXTT2=
EXTT3=
EXTT4=
EXTT5=
EXTT6=
EXTT7=
EXTT8=
EXTT9=
EXTT10=
EXTT11=
EXTT12=
EXTT13=
EXTT14=
EXTT15=
EXTT16=
EXTT17=
EXTT18=
EXTT19=
EXTT20=
PLAYORDER=
